<mxfile host="app.diagrams.net" modified="2023-09-07T20:18:41.852Z" agent="Mozilla/5.0 (Windows NT 10.0; Win64; x64) AppleWebKit/537.36 (KHTML, like Gecko) Chrome/116.0.0.0 Safari/537.36" etag="yi1aqnXnToHoY6Wd_Sd8" version="21.7.2" type="github">
  <diagram name="PÃ¡gina-1" id="rwImzyeiDyUP7PvFKX-l">
    <mxGraphModel dx="880" dy="438" grid="1" gridSize="10" guides="1" tooltips="1" connect="1" arrows="1" fold="1" page="1" pageScale="1" pageWidth="827" pageHeight="1169" math="0" shadow="0">
      <root>
        <mxCell id="0" />
        <mxCell id="1" parent="0" />
        <mxCell id="wmUSzIwmhgZcpsxR-x6l-5" value="&lt;p style=&quot;margin:0px;margin-top:4px;text-align:center;&quot;&gt;&lt;b&gt;BasePessoa&lt;/b&gt;&lt;/p&gt;&lt;p style=&quot;margin:0px;margin-top:4px;text-align:center;&quot;&gt;&lt;b&gt;&amp;lt;&amp;lt;Abstract&amp;gt;&amp;gt;&lt;/b&gt;&lt;/p&gt;&lt;hr size=&quot;1&quot;&gt;&lt;p style=&quot;margin:0px;margin-left:4px;&quot;&gt;# codigo: int&lt;/p&gt;&amp;nbsp;# nome : string&lt;br&gt;&amp;nbsp;# email: string&lt;br&gt;&amp;nbsp;# telefone: string&lt;br&gt;&amp;nbsp;# dataNascimento: data&lt;br&gt;&amp;nbsp;# usuario: string&lt;br&gt;&lt;span style=&quot;background-color: initial;&quot;&gt;&amp;nbsp;# senha: string&lt;/span&gt;&lt;br&gt;&lt;hr size=&quot;1&quot;&gt;&lt;p style=&quot;margin:0px;margin-left:4px;&quot;&gt;+ BasePessoa(int, string, string, string, data, string, string)&lt;/p&gt;" style="verticalAlign=top;align=left;overflow=fill;fontSize=12;fontFamily=Helvetica;html=1;whiteSpace=wrap;" vertex="1" parent="1">
          <mxGeometry x="320" y="190" width="160" height="210" as="geometry" />
        </mxCell>
        <mxCell id="wmUSzIwmhgZcpsxR-x6l-8" style="edgeStyle=orthogonalEdgeStyle;rounded=0;orthogonalLoop=1;jettySize=auto;html=1;exitX=0.5;exitY=0;exitDx=0;exitDy=0;entryX=0.5;entryY=1;entryDx=0;entryDy=0;" edge="1" parent="1" source="wmUSzIwmhgZcpsxR-x6l-6" target="wmUSzIwmhgZcpsxR-x6l-5">
          <mxGeometry relative="1" as="geometry" />
        </mxCell>
        <mxCell id="wmUSzIwmhgZcpsxR-x6l-6" value="&lt;p style=&quot;margin:0px;margin-top:4px;text-align:center;&quot;&gt;&lt;b&gt;Funcionario&lt;/b&gt;&lt;/p&gt;&lt;hr size=&quot;1&quot;&gt;&lt;p style=&quot;margin:0px;margin-left:4px;&quot;&gt;- contaCorrente: string&lt;/p&gt;&amp;nbsp;- registro: string&lt;br&gt;&amp;nbsp;- cracha: string&lt;br&gt;&lt;hr size=&quot;1&quot;&gt;&lt;p style=&quot;margin:0px;margin-left:4px;&quot;&gt;+ Funcionario(int, string, string, string, data, string, string, string, string, string)&lt;/p&gt;" style="verticalAlign=top;align=left;overflow=fill;fontSize=12;fontFamily=Helvetica;html=1;whiteSpace=wrap;" vertex="1" parent="1">
          <mxGeometry x="200" y="520" width="160" height="140" as="geometry" />
        </mxCell>
        <mxCell id="wmUSzIwmhgZcpsxR-x6l-9" style="edgeStyle=orthogonalEdgeStyle;rounded=0;orthogonalLoop=1;jettySize=auto;html=1;exitX=0.5;exitY=0;exitDx=0;exitDy=0;entryX=0.5;entryY=1;entryDx=0;entryDy=0;" edge="1" parent="1" source="wmUSzIwmhgZcpsxR-x6l-7" target="wmUSzIwmhgZcpsxR-x6l-5">
          <mxGeometry relative="1" as="geometry" />
        </mxCell>
        <mxCell id="wmUSzIwmhgZcpsxR-x6l-7" value="&lt;p style=&quot;margin:0px;margin-top:4px;text-align:center;&quot;&gt;&lt;b&gt;Passageiro&lt;/b&gt;&lt;/p&gt;&lt;hr size=&quot;1&quot;&gt;&lt;p style=&quot;margin:0px;margin-left:4px;&quot;&gt;- numeroCartao: string&lt;/p&gt;&amp;nbsp;- documento: string&lt;br&gt;&amp;nbsp;- registro: string&lt;br&gt;&lt;hr size=&quot;1&quot;&gt;&lt;p style=&quot;margin:0px;margin-left:4px;&quot;&gt;+ Passageiro(int, string, string, string, data, string, string, string, string, string)&lt;/p&gt;" style="verticalAlign=top;align=left;overflow=fill;fontSize=12;fontFamily=Helvetica;html=1;whiteSpace=wrap;" vertex="1" parent="1">
          <mxGeometry x="440" y="520" width="160" height="140" as="geometry" />
        </mxCell>
      </root>
    </mxGraphModel>
  </diagram>
</mxfile>
